<?xml version="1.0" standalone="no"?><!DOCTYPE svg PUBLIC "-//W3C//DTD SVG 1.1//EN" "http://www.w3.org/Graphics/SVG/1.1/DTD/svg11.dtd"><svg height="1024" node-id="1" sillyvg="true" template-height="1024" template-width="1024" version="1.1" viewBox="0 0 1024 1024" width="1024" xmlns="http://www.w3.org/2000/svg" xmlns:xlink="http://www.w3.org/1999/xlink"><defs node-id="134"><linearGradient gradientUnits="objectBoundingBox" id="SVGID_1_" node-id="64" spreadMethod="pad" x1="503.8089" x2="512.1661" y1="621.252" y2="752.951"><stop offset="0" stop-color="#91b3ff"></stop><stop offset="0.4022" stop-color="#6791f2"></stop><stop offset="0.7939" stop-color="#3b6ce4"></stop></linearGradient><linearGradient gradientUnits="objectBoundingBox" id="SVGID_2_" node-id="69" spreadMethod="pad" x1="519.5139" x2="523.4969" y1="618.2672" y2="681.0345"><stop offset="0" stop-color="#91b3ff"></stop><stop offset="0.2484" stop-color="#6795ec"></stop><stop offset="0.7939" stop-color="#004cbf"></stop></linearGradient><linearGradient gradientUnits="objectBoundingBox" id="SVGID_3_" node-id="78" spreadMethod="pad" x1="743.9888" x2="707.036" y1="649.0374" y2="598.7522"><stop offset="0" stop-color="#efbb81"></stop><stop offset="0.5011" stop-color="#f79e57"></stop><stop offset="1" stop-color="#ff7f2a"></stop></linearGradient><linearGradient gradientUnits="objectBoundingBox" id="SVGID_4_" node-id="87" spreadMethod="pad" x1="802.319" x2="781.2361" y1="686.5665" y2="657.8769"><stop offset="0" stop-color="#efbb81"></stop><stop offset="0.5011" stop-color="#f79e57"></stop><stop offset="1" stop-color="#ff7f2a"></stop></linearGradient><linearGradient gradientUnits="objectBoundingBox" id="SVGID_5_" node-id="98" spreadMethod="pad" x1="512.0217" x2="512.0217" y1="274.3408" y2="332.0915"><stop offset="0" stop-color="#efbb81"></stop><stop offset="0.5011" stop-color="#f79e57"></stop><stop offset="1" stop-color="#ff7f2a"></stop></linearGradient></defs><g node-id="418"><g node-id="421"><path d="M 163.00 716.10 L 163.00 510.30 L 245.50 510.30 L 245.50 362.10 L 386.10 362.10 L 386.10 716.10 Z" fill="#ccdafe" fill-rule="nonzero" group-id="1,4" node-id="183" stroke="none" target-height="353.99997" target-width="223.1" target-x="163" target-y="362.1"></path><g node-id="426"><path d="M 259.50 386.60 L 288.30 386.60 L 288.30 409.60 L 259.50 409.60 Z" fill="#a8beef" fill-rule="nonzero" group-id="1,4,9" node-id="187" stroke="none" target-height="23" target-width="28.799988" target-x="259.5" target-y="386.6"></path><path d="M 302.60 386.60 L 331.40 386.60 L 331.40 409.60 L 302.60 409.60 Z" fill="#a8beef" fill-rule="nonzero" group-id="1,4,9" node-id="189" stroke="none" target-height="23" target-width="28.799988" target-x="302.6" target-y="386.6"></path><path d="M 345.80 386.60 L 374.60 386.60 L 374.60 409.60 L 345.80 409.60 Z" fill="#a8beef" fill-rule="nonzero" group-id="1,4,9" node-id="191" stroke="none" target-height="23" target-width="28.800018" target-x="345.8" target-y="386.6"></path><path d="M 259.50 422.60 L 288.30 422.60 L 288.30 445.60 L 259.50 445.60 Z" fill="#a8beef" fill-rule="nonzero" group-id="1,4,9" node-id="193" stroke="none" target-height="23" target-width="28.799988" target-x="259.5" target-y="422.6"></path><path d="M 302.60 422.60 L 331.40 422.60 L 331.40 445.60 L 302.60 445.60 Z" fill="#a8beef" fill-rule="nonzero" group-id="1,4,9" node-id="195" stroke="none" target-height="23" target-width="28.799988" target-x="302.6" target-y="422.6"></path><path d="M 345.80 422.60 L 374.60 422.60 L 374.60 445.60 L 345.80 445.60 Z" fill="#a8beef" fill-rule="nonzero" group-id="1,4,9" node-id="197" stroke="none" target-height="23" target-width="28.800018" target-x="345.8" target-y="422.6"></path><path d="M 259.50 458.50 L 288.30 458.50 L 288.30 481.50 L 259.50 481.50 Z" fill="#a8beef" fill-rule="nonzero" group-id="1,4,9" node-id="199" stroke="none" target-height="23" target-width="28.799988" target-x="259.5" target-y="458.5"></path><path d="M 302.60 458.50 L 331.40 458.50 L 331.40 481.50 L 302.60 481.50 Z" fill="#a8beef" fill-rule="nonzero" group-id="1,4,9" node-id="201" stroke="none" target-height="23" target-width="28.799988" target-x="302.6" target-y="458.5"></path><path d="M 345.80 458.50 L 374.60 458.50 L 374.60 481.50 L 345.80 481.50 Z" fill="#a8beef" fill-rule="nonzero" group-id="1,4,9" node-id="203" stroke="none" target-height="23" target-width="28.800018" target-x="345.8" target-y="458.5"></path><path d="M 259.50 494.50 L 288.30 494.50 L 288.30 517.50 L 259.50 517.50 Z" fill="#a8beef" fill-rule="nonzero" group-id="1,4,9" node-id="205" stroke="none" target-height="23" target-width="28.799988" target-x="259.5" target-y="494.5"></path><path d="M 302.60 494.50 L 331.40 494.50 L 331.40 517.50 L 302.60 517.50 Z" fill="#a8beef" fill-rule="nonzero" group-id="1,4,9" node-id="207" stroke="none" target-height="23" target-width="28.799988" target-x="302.6" target-y="494.5"></path><path d="M 345.80 494.50 L 374.60 494.50 L 374.60 517.50 L 345.80 517.50 Z" fill="#a8beef" fill-rule="nonzero" group-id="1,4,9" node-id="209" stroke="none" target-height="23" target-width="28.800018" target-x="345.8" target-y="494.5"></path><path d="M 259.50 530.50 L 288.30 530.50 L 288.30 553.50 L 259.50 553.50 Z" fill="#a8beef" fill-rule="nonzero" group-id="1,4,9" node-id="211" stroke="none" target-height="23" target-width="28.799988" target-x="259.5" target-y="530.5"></path><path d="M 216.30 530.50 L 245.10 530.50 L 245.10 553.50 L 216.30 553.50 Z" fill="#a8beef" fill-rule="nonzero" group-id="1,4,9" node-id="213" stroke="none" target-height="23" target-width="28.800003" target-x="216.3" target-y="530.5"></path><path d="M 173.10 530.50 L 201.90 530.50 L 201.90 553.50 L 173.10 553.50 Z" fill="#a8beef" fill-rule="nonzero" group-id="1,4,9" node-id="215" stroke="none" target-height="23" target-width="28.799988" target-x="173.1" target-y="530.5"></path><path d="M 302.60 530.50 L 331.40 530.50 L 331.40 553.50 L 302.60 553.50 Z" fill="#a8beef" fill-rule="nonzero" group-id="1,4,9" node-id="217" stroke="none" target-height="23" target-width="28.799988" target-x="302.6" target-y="530.5"></path><path d="M 345.80 530.50 L 374.60 530.50 L 374.60 553.50 L 345.80 553.50 Z" fill="#a8beef" fill-rule="nonzero" group-id="1,4,9" node-id="219" stroke="none" target-height="23" target-width="28.800018" target-x="345.8" target-y="530.5"></path><path d="M 259.50 566.50 L 288.30 566.50 L 288.30 589.50 L 259.50 589.50 Z" fill="#a8beef" fill-rule="nonzero" group-id="1,4,9" node-id="221" stroke="none" target-height="23" target-width="28.799988" target-x="259.5" target-y="566.5"></path><path d="M 216.30 566.50 L 245.10 566.50 L 245.10 589.50 L 216.30 589.50 Z" fill="#a8beef" fill-rule="nonzero" group-id="1,4,9" node-id="223" stroke="none" target-height="23" target-width="28.800003" target-x="216.3" target-y="566.5"></path><path d="M 173.10 566.50 L 201.90 566.50 L 201.90 589.50 L 173.10 589.50 Z" fill="#a8beef" fill-rule="nonzero" group-id="1,4,9" node-id="225" stroke="none" target-height="23" target-width="28.799988" target-x="173.1" target-y="566.5"></path><path d="M 302.60 566.50 L 331.40 566.50 L 331.40 589.50 L 302.60 589.50 Z" fill="#a8beef" fill-rule="nonzero" group-id="1,4,9" node-id="227" stroke="none" target-height="23" target-width="28.799988" target-x="302.6" target-y="566.5"></path><path d="M 345.80 566.50 L 374.60 566.50 L 374.60 589.50 L 345.80 589.50 Z" fill="#a8beef" fill-rule="nonzero" group-id="1,4,9" node-id="229" stroke="none" target-height="23" target-width="28.800018" target-x="345.8" target-y="566.5"></path><path d="M 259.50 602.40 L 288.30 602.40 L 288.30 625.40 L 259.50 625.40 Z" fill="#a8beef" fill-rule="nonzero" group-id="1,4,9" node-id="231" stroke="none" target-height="23" target-width="28.799988" target-x="259.5" target-y="602.4"></path><path d="M 216.30 602.40 L 245.10 602.40 L 245.10 625.40 L 216.30 625.40 Z" fill="#a8beef" fill-rule="nonzero" group-id="1,4,9" node-id="233" stroke="none" target-height="23" target-width="28.800003" target-x="216.3" target-y="602.4"></path><path d="M 173.10 602.40 L 201.90 602.40 L 201.90 625.40 L 173.10 625.40 Z" fill="#a8beef" fill-rule="nonzero" group-id="1,4,9" node-id="235" stroke="none" target-height="23" target-width="28.799988" target-x="173.1" target-y="602.4"></path><path d="M 302.60 602.40 L 331.40 602.40 L 331.40 625.40 L 302.60 625.40 Z" fill="#a8beef" fill-rule="nonzero" group-id="1,4,9" node-id="237" stroke="none" target-height="23" target-width="28.799988" target-x="302.6" target-y="602.4"></path><path d="M 345.80 602.40 L 374.60 602.40 L 374.60 625.40 L 345.80 625.40 Z" fill="#a8beef" fill-rule="nonzero" group-id="1,4,9" node-id="239" stroke="none" target-height="23" target-width="28.800018" target-x="345.8" target-y="602.4"></path><path d="M 259.50 638.40 L 288.30 638.40 L 288.30 661.40 L 259.50 661.40 Z" fill="#a8beef" fill-rule="nonzero" group-id="1,4,9" node-id="241" stroke="none" target-height="23" target-width="28.799988" target-x="259.5" target-y="638.4"></path><path d="M 216.30 638.40 L 245.10 638.40 L 245.10 661.40 L 216.30 661.40 Z" fill="#a8beef" fill-rule="nonzero" group-id="1,4,9" node-id="243" stroke="none" target-height="23" target-width="28.800003" target-x="216.3" target-y="638.4"></path><path d="M 173.10 638.40 L 201.90 638.40 L 201.90 661.40 L 173.10 661.40 Z" fill="#a8beef" fill-rule="nonzero" group-id="1,4,9" node-id="245" stroke="none" target-height="23" target-width="28.799988" target-x="173.1" target-y="638.4"></path><path d="M 302.60 638.40 L 331.40 638.40 L 331.40 661.40 L 302.60 661.40 Z" fill="#a8beef" fill-rule="nonzero" group-id="1,4,9" node-id="247" stroke="none" target-height="23" target-width="28.799988" target-x="302.6" target-y="638.4"></path><path d="M 345.80 638.40 L 374.60 638.40 L 374.60 661.40 L 345.80 661.40 Z" fill="#a8beef" fill-rule="nonzero" group-id="1,4,9" node-id="249" stroke="none" target-height="23" target-width="28.800018" target-x="345.8" target-y="638.4"></path></g></g><g node-id="422"><path d="M 635.10 713.30 L 635.10 583.70 L 698.40 583.70 L 698.40 434.10 L 794.80 434.10 L 794.80 504.60 L 850.90 504.60 L 850.90 713.30 Z" fill="#ccdafe" fill-rule="nonzero" group-id="1,5" node-id="255" stroke="none" target-height="279.19998" target-width="215.80005" target-x="635.1" target-y="434.1"></path><g node-id="427"><path d="M 712.80 452.80 L 741.60 452.80 L 741.60 475.80 L 712.80 475.80 Z" fill="#a8beef" fill-rule="nonzero" group-id="1,5,10" node-id="259" stroke="none" target-height="23" target-width="28.799988" target-x="712.8" target-y="452.8"></path><path d="M 753.10 452.80 L 781.90 452.80 L 781.90 475.80 L 753.10 475.80 Z" fill="#a8beef" fill-rule="nonzero" group-id="1,5,10" node-id="261" stroke="none" target-height="23" target-width="28.800049" target-x="753.1" target-y="452.8"></path><path d="M 712.80 596.70 L 741.60 596.70 L 741.60 619.70 L 712.80 619.70 Z" fill="#a8beef" fill-rule="nonzero" group-id="1,5,10" node-id="263" stroke="none" target-height="23" target-width="28.799988" target-x="712.8" target-y="596.7"></path><path d="M 672.50 596.70 L 701.30 596.70 L 701.30 619.70 L 672.50 619.70 Z" fill="#a8beef" fill-rule="nonzero" group-id="1,5,10" node-id="265" stroke="none" target-height="23" target-width="28.799988" target-x="672.5" target-y="596.7"></path><path d="M 672.50 632.70 L 701.30 632.70 L 701.30 655.70 L 672.50 655.70 Z" fill="#a8beef" fill-rule="nonzero" group-id="1,5,10" node-id="267" stroke="none" target-height="23" target-width="28.799988" target-x="672.5" target-y="632.7"></path><path d="M 753.10 596.70 L 781.90 596.70 L 781.90 619.70 L 753.10 619.70 Z" fill="#a8beef" fill-rule="nonzero" group-id="1,5,10" node-id="269" stroke="none" target-height="23" target-width="28.800049" target-x="753.1" target-y="596.7"></path><path d="M 712.80 488.80 L 741.60 488.80 L 741.60 511.80 L 712.80 511.80 Z" fill="#a8beef" fill-rule="nonzero" group-id="1,5,10" node-id="271" stroke="none" target-height="23" target-width="28.799988" target-x="712.8" target-y="488.8"></path><path d="M 753.10 488.80 L 781.90 488.80 L 781.90 511.80 L 753.10 511.80 Z" fill="#a8beef" fill-rule="nonzero" group-id="1,5,10" node-id="273" stroke="none" target-height="23" target-width="28.800049" target-x="753.1" target-y="488.8"></path><path d="M 712.80 524.70 L 741.60 524.70 L 741.60 547.70 L 712.80 547.70 Z" fill="#a8beef" fill-rule="nonzero" group-id="1,5,10" node-id="275" stroke="none" target-height="23" target-width="28.799988" target-x="712.8" target-y="524.7"></path><path d="M 753.10 524.70 L 781.90 524.70 L 781.90 547.70 L 753.10 547.70 Z" fill="#a8beef" fill-rule="nonzero" group-id="1,5,10" node-id="277" stroke="none" target-height="23" target-width="28.800049" target-x="753.1" target-y="524.7"></path><path d="M 793.40 524.70 L 822.20 524.70 L 822.20 547.70 L 793.40 547.70 Z" fill="#a8beef" fill-rule="nonzero" group-id="1,5,10" node-id="279" stroke="none" target-height="23" target-width="28.799988" target-x="793.4" target-y="524.7"></path><path d="M 793.40 560.70 L 822.20 560.70 L 822.20 583.70 L 793.40 583.70 Z" fill="#a8beef" fill-rule="nonzero" group-id="1,5,10" node-id="281" stroke="none" target-height="23" target-width="28.799988" target-x="793.4" target-y="560.7"></path><path d="M 793.40 596.70 L 822.20 596.70 L 822.20 619.70 L 793.40 619.70 Z" fill="#a8beef" fill-rule="nonzero" group-id="1,5,10" node-id="283" stroke="none" target-height="23" target-width="28.799988" target-x="793.4" target-y="596.7"></path><path d="M 793.40 632.70 L 822.20 632.70 L 822.20 655.70 L 793.40 655.70 Z" fill="#a8beef" fill-rule="nonzero" group-id="1,5,10" node-id="285" stroke="none" target-height="23" target-width="28.799988" target-x="793.4" target-y="632.7"></path><path d="M 712.80 560.70 L 741.60 560.70 L 741.60 583.70 L 712.80 583.70 Z" fill="#a8beef" fill-rule="nonzero" group-id="1,5,10" node-id="287" stroke="none" target-height="23" target-width="28.799988" target-x="712.8" target-y="560.7"></path><path d="M 753.10 560.70 L 781.90 560.70 L 781.90 583.70 L 753.10 583.70 Z" fill="#a8beef" fill-rule="nonzero" group-id="1,5,10" node-id="289" stroke="none" target-height="23" target-width="28.800049" target-x="753.1" target-y="560.7"></path><path d="M 712.80 632.70 L 741.60 632.70 L 741.60 655.70 L 712.80 655.70 Z" fill="#a8beef" fill-rule="nonzero" group-id="1,5,10" node-id="291" stroke="none" target-height="23" target-width="28.799988" target-x="712.8" target-y="632.7"></path><path d="M 753.10 632.70 L 781.90 632.70 L 781.90 655.70 L 753.10 655.70 Z" fill="#a8beef" fill-rule="nonzero" group-id="1,5,10" node-id="293" stroke="none" target-height="23" target-width="28.800049" target-x="753.1" target-y="632.7"></path></g></g><g node-id="423"><g node-id="428"><path d="M 92.50 750.70 L 105.10 741.40 L 128.20 726.40 L 155.50 710.30 L 182.70 696.10 L 197.20 689.00 L 213.20 681.80 L 230.60 674.30 L 248.20 667.30 L 267.10 660.50 L 287.40 653.70 L 318.50 644.50 L 335.00 640.30 L 352.30 636.20 L 369.50 632.70 L 387.30 629.50 L 405.70 626.60 L 424.80 624.20 L 443.70 622.30 L 463.30 620.90 L 483.40 620.00 L 504.10 619.70 L 521.60 620.00 L 538.90 620.70 L 555.90 621.80 L 572.70 623.40 L 606.00 627.70 L 638.10 633.30 L 659.20 637.80 L 679.50 642.70 L 699.20 648.00 L 718.80 653.80 L 737.40 659.70 L 772.90 672.30 L 805.20 685.20 L 828.00 695.20 L 848.20 704.60 L 867.20 714.00 L 883.20 722.40 L 909.40 737.10 L 931.50 750.70 L 914.60 745.60 L 888.70 739.50 L 859.10 734.10 L 842.70 731.70 L 823.70 729.40 L 801.70 727.20 L 779.80 725.50 L 755.00 724.20 L 727.20 723.30 L 714.50 723.30 L 702.30 723.80 L 690.50 724.60 L 672.80 726.50 L 655.50 729.00 L 603.00 738.10 L 572.00 742.90 L 545.20 745.90 L 531.50 746.90 L 516.90 747.60 L 501.30 747.80 L 479.60 747.60 L 439.30 745.80 L 420.00 744.50 L 343.20 737.70 L 302.40 734.50 L 258.10 732.00 L 243.60 731.70 L 229.50 731.70 L 215.80 732.20 L 189.00 734.00 L 158.60 737.60 L 128.00 742.70 L 116.20 745.10 L 92.50 750.70 Z" fill="url(#SVGID_1_)" fill-rule="nonzero" group-id="1,6,11" node-id="301" stroke="none" target-height="131" target-width="839" target-x="92.5" target-y="619.7"></path><path d="M 429.20 623.70 L 424.40 627.70 L 421.60 631.90 L 420.80 634.10 L 420.60 636.20 L 420.90 638.60 L 421.80 641.00 L 423.40 643.50 L 425.70 646.00 L 431.40 650.20 L 439.90 654.50 L 446.10 656.80 L 453.30 659.10 L 469.90 662.80 L 489.00 665.50 L 499.00 666.40 L 520.60 667.10 L 531.70 666.90 L 552.20 665.50 L 562.20 664.30 L 579.60 661.10 L 587.90 659.00 L 595.10 656.80 L 605.90 652.30 L 609.80 650.20 L 615.50 645.90 L 617.80 643.40 L 619.40 641.00 L 620.30 638.60 L 620.60 636.20 L 620.30 634.10 L 619.60 631.90 L 618.30 629.60 L 600.00 626.70 L 581.30 624.30 L 562.30 622.30 L 543.20 620.80 L 523.70 619.90 L 504.00 619.60 L 484.70 619.90 L 465.90 620.80 L 447.30 622.00 L 429.20 623.70 Z" fill="url(#SVGID_2_)" fill-rule="nonzero" group-id="1,6,11" node-id="303" stroke="none" target-height="47.5" target-width="199.99997" target-x="420.6" target-y="619.6"></path><g node-id="430"><path d="M 387.10 677.00 L 387.20 680.20 L 386.50 682.00 L 385.30 684.00 L 383.40 686.30 L 380.70 688.80 L 377.10 691.60 L 368.90 696.50 L 363.80 699.00 L 352.90 703.40 L 346.70 705.30 L 340.40 707.00 L 328.80 709.30 L 323.20 709.90 L 313.60 710.20 L 309.10 709.80 L 305.50 709.20 L 302.60 708.20 L 299.00 706.00 L 297.30 703.40 L 297.10 701.80 L 297.30 700.20 L 299.10 696.40 L 301.00 694.10 L 303.70 691.50 L 307.30 688.80 L 315.50 683.80 L 320.60 681.30 L 331.60 677.00 L 337.80 675.00 L 344.10 673.30 L 355.60 671.10 L 361.30 670.40 L 370.80 670.20 L 375.30 670.50 L 379.00 671.20 L 381.90 672.10 L 383.90 673.20 L 385.40 674.30 L 386.50 675.60 L 387.10 677.00 Z" fill="#3b6ce4" fill-rule="nonzero" group-id="1,6,11,13" node-id="307" stroke="none" target-height="40" target-width="90.100006" target-x="297.1" target-y="670.2"></path></g><path d="M 562.40 699.50 L 568.00 701.40 L 573.10 703.70 L 577.90 706.40 L 581.70 709.10 L 584.00 711.20 L 586.80 714.80 L 587.60 716.70 L 587.90 718.40 L 587.70 720.00 L 587.00 721.40 L 585.80 722.60 L 584.10 723.80 L 579.70 725.20 L 576.70 725.60 L 572.00 725.70 L 566.50 725.30 L 561.00 724.30 L 555.20 722.80 L 549.60 720.80 L 544.40 718.50 L 539.70 715.90 L 535.80 713.10 L 533.60 711.10 L 530.70 707.40 L 529.90 705.50 L 529.70 703.90 L 529.90 702.30 L 530.60 700.90 L 531.70 699.60 L 533.50 698.50 L 537.80 697.10 L 540.90 696.60 L 545.60 696.50 L 551.00 697.00 L 556.60 698.00 L 562.40 699.50 Z" fill="#3b6ce4" fill-rule="nonzero" group-id="1,6,11,14" node-id="312" stroke="none" target-height="29.200012" target-width="58.200012" target-x="529.7" target-y="696.5"></path></g><g node-id="429"><g node-id="432"><path d="M 749.80 627.70 L 752.10 625.00 L 753.90 622.10 L 755.20 619.00 L 756.10 615.80 L 756.40 612.50 L 756.20 609.10 L 755.50 606.10 L 754.40 603.30 L 753.00 600.70 L 751.20 598.30 L 746.70 594.30 L 741.00 591.30 L 741.10 588.60 L 740.80 585.70 L 739.90 582.70 L 738.60 580.10 L 736.80 577.80 L 734.70 575.90 L 732.30 574.30 L 729.70 573.10 L 726.90 572.40 L 724.00 572.30 L 721.00 572.60 L 718.10 573.50 L 715.50 574.80 L 713.20 576.60 L 711.30 578.70 L 709.70 581.10 L 708.60 583.70 L 707.90 586.50 L 707.80 589.40 L 708.10 592.50 L 709.20 595.80 L 706.70 598.00 L 702.80 602.90 L 700.20 608.40 L 699.50 611.30 L 699.30 614.30 L 699.50 617.40 L 700.10 620.20 L 702.40 625.20 L 704.00 627.50 L 701.50 629.40 L 697.90 633.40 L 696.60 635.70 L 695.90 638.00 L 695.60 640.50 L 695.90 643.10 L 696.70 645.50 L 698.10 647.90 L 699.80 650.00 L 702.00 652.00 L 704.70 653.90 L 711.00 656.90 L 718.50 658.80 L 722.50 659.30 L 726.80 659.50 L 735.10 658.80 L 738.90 658.00 L 745.90 655.50 L 751.60 652.00 L 753.80 650.00 L 755.50 647.90 L 756.90 645.50 L 757.70 643.10 L 758.00 640.50 L 757.70 638.10 L 757.00 635.80 L 755.70 633.50 L 754.20 631.50 L 749.80 627.70 Z" fill="url(#SVGID_3_)" fill-rule="nonzero" group-id="1,6,12,15" node-id="320" stroke="none" target-height="87.20001" target-width="62.400024" target-x="695.6" target-y="572.3"></path><g node-id="434"><g node-id="436"><path d="M 726.10 686.00 L 725.10 684.30 L 724.80 683.10 L 726.90 659.80 L 727.10 651.40 L 727.00 639.50 L 726.40 631.30 L 724.50 619.20 L 724.60 618.00 L 725.30 616.00 L 726.10 615.40 L 726.80 615.40 L 727.40 616.00 L 727.90 617.40 L 729.80 629.80 L 730.60 642.70 L 730.70 651.60 L 729.60 671.10 L 728.30 683.50 L 727.40 685.70 L 726.80 686.10 L 726.10 686.00 Z" fill="#ff7f2a" fill-rule="nonzero" group-id="1,6,12,15,17,19" node-id="326" stroke="none" target-height="70.69995" target-width="6.200012" target-x="724.5" target-y="615.4"></path></g></g></g><g node-id="433"><path d="M 805.60 674.40 L 807.40 672.10 L 808.70 669.50 L 809.20 667.60 L 809.30 663.80 L 808.70 661.50 L 807.80 659.50 L 804.80 656.10 L 800.60 653.60 L 800.50 650.40 L 800.00 648.70 L 798.20 645.90 L 796.30 644.30 L 794.20 643.20 L 790.90 642.70 L 789.20 642.90 L 786.10 644.10 L 784.80 645.10 L 783.20 647.00 L 782.20 649.30 L 781.70 652.50 L 782.50 656.20 L 779.10 659.70 L 777.20 663.90 L 776.90 666.20 L 777.00 668.50 L 777.50 670.60 L 779.60 674.30 L 777.50 675.90 L 776.10 677.60 L 775.10 679.60 L 774.80 681.70 L 775.10 683.60 L 775.90 685.40 L 777.20 687.20 L 778.90 688.60 L 781.00 689.90 L 786.30 691.80 L 792.60 692.50 L 798.90 691.80 L 804.20 689.90 L 808.00 687.10 L 809.30 685.40 L 810.10 683.60 L 810.40 681.70 L 810.00 679.70 L 809.10 677.70 L 807.60 676.00 L 805.60 674.40 Z" fill="url(#SVGID_4_)" fill-rule="nonzero" group-id="1,6,12,16" node-id="333" stroke="none" target-height="49.799988" target-width="35.600037" target-x="774.8" target-y="642.7"></path><g node-id="435"><g node-id="437"><path d="M 792.10 707.70 L 791.50 706.80 L 791.40 705.20 L 792.40 695.40 L 792.60 681.20 L 791.20 668.80 L 791.60 667.70 L 792.40 667.40 L 793.10 668.50 L 794.20 675.60 L 794.70 688.00 L 794.30 696.00 L 793.30 706.20 L 792.90 707.50 L 792.10 707.70 Z" fill="#ff7f2a" fill-rule="nonzero" group-id="1,6,12,16,18,20" node-id="339" stroke="none" target-height="40.299988" target-width="3.5" target-x="791.2" target-y="667.4"></path></g></g></g></g></g></g><g node-id="419"><path d="M 647.10 636.20 L 376.90 636.20 L 373.40 635.60 L 371.90 634.90 L 369.30 632.70 L 367.60 629.80 L 367.00 626.30 L 367.00 306.10 L 367.60 302.60 L 369.30 299.70 L 371.90 297.50 L 375.10 296.40 L 647.10 296.20 L 650.60 296.80 L 652.10 297.50 L 654.70 299.70 L 656.40 302.60 L 657.00 306.10 L 657.00 626.30 L 656.40 629.70 L 655.70 631.30 L 654.10 633.30 L 652.10 634.80 L 650.60 635.60 L 647.10 636.20 Z" fill="#3b6ce4" fill-rule="nonzero" group-id="2" node-id="349" stroke="none" target-height="340" target-width="290" target-x="367" target-y="296.2"></path><path d="M 387.00 608.30 L 387.00 324.10 L 387.30 322.00 L 388.10 320.10 L 389.30 318.50 L 390.90 317.30 L 392.80 316.50 L 394.90 316.20 L 629.10 316.20 L 631.20 316.50 L 633.10 317.30 L 634.70 318.50 L 635.90 320.10 L 636.70 322.00 L 637.00 324.10 L 637.00 608.30 L 636.70 610.40 L 635.90 612.30 L 634.70 613.90 L 633.10 615.10 L 631.20 615.90 L 629.10 616.20 L 394.90 616.20 L 392.80 615.90 L 390.90 615.10 L 389.30 613.90 L 388.10 612.30 L 387.30 610.40 L 387.00 608.30 Z" fill="#ffffff" fill-rule="nonzero" group-id="2" node-id="351" stroke="none" target-height="300" target-width="250" target-x="387" target-y="316.2"></path><path d="M 592.20 332.80 L 431.80 332.80 L 430.20 332.60 L 428.80 332.00 L 426.60 329.80 L 425.80 326.80 L 425.80 278.80 L 426.00 277.20 L 426.60 275.80 L 427.60 274.60 L 430.20 273.00 L 431.80 272.80 L 592.20 272.80 L 593.80 273.00 L 595.20 273.60 L 597.40 275.80 L 598.00 277.20 L 598.20 278.80 L 598.20 326.80 L 598.00 328.50 L 597.40 329.90 L 596.50 331.10 L 595.30 332.00 L 593.90 332.60 L 592.20 332.80 Z" fill="url(#SVGID_5_)" fill-rule="nonzero" group-id="2" node-id="353" stroke="none" target-height="60" target-width="172.40002" target-x="425.8" target-y="272.8"></path><g node-id="424"><path d="M 423.00 382.10 L 602.80 381.90 L 606.00 380.70 L 608.60 378.50 L 610.40 375.60 L 611.00 372.10 L 610.40 368.60 L 608.60 365.70 L 606.00 363.50 L 602.80 362.30 L 421.20 362.30 L 418.00 363.50 L 415.40 365.70 L 413.60 368.60 L 413.00 372.10 L 413.60 375.60 L 415.40 378.50 L 418.00 380.70 L 419.50 381.50 L 423.00 382.10 Z" fill="#c69767" fill-rule="nonzero" group-id="2,7" node-id="357" stroke="none" target-height="19.800018" target-width="198" target-x="413" target-y="362.3"></path><path d="M 601.00 407.30 L 421.20 407.50 L 418.00 408.70 L 415.40 410.90 L 413.60 413.80 L 413.00 417.30 L 413.60 420.80 L 415.40 423.70 L 418.00 425.90 L 419.50 426.70 L 423.00 427.30 L 602.80 427.10 L 606.00 425.90 L 608.60 423.70 L 610.40 420.80 L 611.00 417.30 L 610.40 413.80 L 608.60 410.90 L 606.00 408.70 L 604.50 407.90 L 601.00 407.30 Z" fill="#c69767" fill-rule="nonzero" group-id="2,7" node-id="359" stroke="none" target-height="20" target-width="198" target-x="413" target-y="407.3"></path><path d="M 601.00 452.50 L 491.90 452.70 L 488.70 453.90 L 486.10 456.10 L 484.30 459.00 L 483.70 462.50 L 484.30 466.00 L 486.10 468.90 L 488.70 471.10 L 491.90 472.30 L 602.80 472.30 L 606.00 471.10 L 608.60 468.90 L 610.40 466.00 L 611.00 462.50 L 610.40 459.00 L 608.60 456.10 L 606.00 453.90 L 604.50 453.10 L 601.00 452.50 Z" fill="#c69767" fill-rule="nonzero" group-id="2,7" node-id="361" stroke="none" target-height="19.799988" target-width="127.29999" target-x="483.7" target-y="452.5"></path><path d="M 601.00 497.70 L 530.60 497.70 L 527.10 498.30 L 524.20 500.10 L 522.00 502.70 L 520.80 505.90 L 520.60 507.70 L 521.20 511.20 L 523.00 514.10 L 525.60 516.30 L 528.80 517.50 L 601.00 517.70 L 604.50 517.10 L 607.40 515.30 L 609.60 512.70 L 610.80 509.50 L 610.80 505.90 L 609.60 502.70 L 607.40 500.10 L 604.50 498.30 L 601.00 497.70 Z" fill="#c69767" fill-rule="nonzero" group-id="2,7" node-id="363" stroke="none" target-height="20" target-width="90.20001" target-x="520.6" target-y="497.7"></path></g><g node-id="425"><path d="M 423.00 378.00 L 602.80 377.80 L 606.00 376.60 L 608.60 374.40 L 610.40 371.50 L 611.00 368.00 L 610.40 364.50 L 608.60 361.60 L 606.00 359.40 L 604.50 358.60 L 601.00 358.00 L 421.20 358.20 L 418.00 359.40 L 415.40 361.60 L 413.60 364.50 L 413.00 368.00 L 413.60 371.50 L 415.40 374.50 L 418.00 376.70 L 419.50 377.40 L 423.00 378.00 Z" fill="#efbb81" fill-rule="nonzero" group-id="2,8" node-id="368" stroke="none" target-height="20" target-width="198" target-x="413" target-y="358"></path><path d="M 601.00 403.20 L 421.20 403.40 L 418.00 404.60 L 415.40 406.80 L 413.60 409.70 L 413.00 413.20 L 413.60 416.70 L 415.40 419.60 L 418.00 421.80 L 421.20 423.00 L 602.80 423.00 L 606.00 421.80 L 608.60 419.60 L 610.40 416.70 L 611.00 413.20 L 610.40 409.70 L 609.60 408.20 L 607.40 405.60 L 604.50 403.80 L 601.00 403.20 Z" fill="#efbb81" fill-rule="nonzero" group-id="2,8" node-id="370" stroke="none" target-height="19.799988" target-width="198" target-x="413" target-y="403.2"></path><path d="M 601.00 448.40 L 491.90 448.60 L 488.70 449.80 L 486.10 452.00 L 484.30 454.90 L 483.70 458.40 L 484.30 461.90 L 486.10 464.80 L 488.70 467.00 L 491.90 468.20 L 602.80 468.20 L 606.00 467.00 L 608.60 464.80 L 610.40 461.90 L 611.00 458.40 L 610.40 454.90 L 608.60 452.00 L 606.00 449.80 L 604.50 449.00 L 601.00 448.40 Z" fill="#efbb81" fill-rule="nonzero" group-id="2,8" node-id="372" stroke="none" target-height="19.800018" target-width="127.29999" target-x="483.7" target-y="448.4"></path><path d="M 601.00 493.60 L 530.60 493.60 L 527.10 494.20 L 524.20 496.00 L 522.00 498.60 L 520.80 501.80 L 520.60 503.60 L 521.20 507.10 L 523.00 510.00 L 525.60 512.20 L 528.80 513.40 L 601.00 513.60 L 604.50 513.00 L 607.40 511.20 L 609.60 508.60 L 610.80 505.40 L 610.80 501.80 L 609.60 498.60 L 607.40 496.00 L 604.50 494.20 L 601.00 493.60 Z" fill="#efbb81" fill-rule="nonzero" group-id="2,8" node-id="374" stroke="none" target-height="19.99997" target-width="90.20001" target-x="520.6" target-y="493.6"></path></g><path d="M 460.40 303.50 L 460.10 305.50 L 459.40 307.20 L 458.30 308.70 L 456.80 309.80 L 455.10 310.50 L 453.10 310.80 L 451.10 310.50 L 449.40 309.80 L 447.90 308.70 L 446.80 307.20 L 446.10 305.50 L 445.80 303.50 L 446.10 301.50 L 446.80 299.80 L 447.90 298.30 L 449.40 297.20 L 451.10 296.50 L 453.10 296.20 L 455.10 296.50 L 456.80 297.20 L 458.30 298.30 L 459.40 299.80 L 460.10 301.50 L 460.40 303.50 Z" fill="#ff7f2a" fill-rule="nonzero" group-id="2" node-id="377" stroke="none" target-height="14.599976" target-width="14.600006" target-x="445.8" target-y="296.2"></path><path d="M 578.20 303.50 L 577.90 305.50 L 577.20 307.20 L 576.10 308.70 L 574.60 309.80 L 572.90 310.50 L 570.90 310.80 L 568.90 310.50 L 567.20 309.80 L 565.70 308.70 L 564.60 307.20 L 563.90 305.50 L 563.60 303.50 L 563.90 301.50 L 564.60 299.80 L 565.70 298.30 L 567.20 297.20 L 568.90 296.50 L 570.90 296.20 L 572.90 296.50 L 574.60 297.20 L 576.10 298.30 L 577.20 299.80 L 577.90 301.50 L 578.20 303.50 Z" fill="#ff7f2a" fill-rule="nonzero" group-id="2" node-id="379" stroke="none" target-height="14.599976" target-width="14.600037" target-x="563.6" target-y="296.2"></path></g><g node-id="420"><path d="M 435.00 500.80 L 450.30 500.80 L 454.00 505.80 L 445.20 515.40 L 439.80 515.40 L 432.70 504.20 Z" fill="#b9d8ed" fill-rule="nonzero" group-id="3" node-id="384" stroke="none" target-height="14.600037" target-width="21.299988" target-x="432.7" target-y="500.8"></path><path d="M 408.10 685.10 L 406.60 689.70 L 405.70 691.20 L 404.60 692.40 L 398.20 696.40 L 396.80 697.60 L 395.30 699.90 L 394.90 704.60 L 395.20 708.40 L 398.10 709.30 L 401.80 709.50 L 403.40 709.00 L 405.00 708.00 L 411.30 702.20 L 415.90 699.30 L 415.90 684.00 L 408.10 685.10 Z" fill="#353535" fill-rule="nonzero" group-id="3" node-id="386" stroke="none" target-height="25.5" target-width="21" target-x="394.9" target-y="684"></path><path d="M 454.10 684.60 L 455.60 689.20 L 456.50 690.70 L 457.60 691.90 L 464.00 695.90 L 465.40 697.10 L 466.80 699.40 L 467.30 704.10 L 467.00 707.90 L 464.10 708.80 L 460.40 709.00 L 458.80 708.50 L 457.30 707.50 L 450.90 701.70 L 446.30 698.80 L 446.30 683.50 L 454.10 684.60 Z" fill="#353535" fill-rule="nonzero" group-id="3" node-id="388" stroke="none" target-height="25.5" target-width="21" target-x="446.3" target-y="683.5"></path><path d="M 432.10 485.20 L 430.40 483.60 L 429.50 481.70 L 429.00 478.30 L 429.60 469.30 L 430.10 467.20 L 430.90 465.80 L 432.10 464.60 L 436.40 462.20 L 439.60 461.50 L 444.50 462.00 L 447.90 459.60 L 449.90 458.60 L 452.10 458.00 L 454.30 458.10 L 455.60 458.50 L 456.90 459.50 L 458.20 461.00 L 459.70 465.10 L 460.00 467.50 L 460.00 471.30 L 459.50 475.00 L 458.60 478.50 L 457.50 481.30 L 455.80 484.00 L 455.10 484.50 L 453.10 485.00 L 450.40 485.40 L 444.50 485.70 L 432.10 485.20 Z" fill="#63393f" fill-rule="nonzero" group-id="3" node-id="390" stroke="none" target-height="27.700012" target-width="31" target-x="429" target-y="458"></path><path d="M 420.80 576.00 L 419.00 602.40 L 416.40 625.10 L 405.90 687.70 L 411.80 687.70 L 416.30 687.30 L 419.30 686.40 L 419.80 685.60 L 422.20 676.50 L 427.10 649.60 L 439.00 592.90 L 445.00 592.60 L 443.20 686.40 L 446.80 687.70 L 449.80 688.20 L 453.10 688.30 L 457.40 687.80 L 457.70 665.30 L 459.70 643.80 L 460.70 625.70 L 461.80 576.10 L 420.80 576.10 Z" fill="#274da0" fill-rule="nonzero" group-id="3" node-id="392" stroke="none" target-height="112.29999" target-width="55.899994" target-x="405.9" target-y="576"></path><path d="M 433.50 472.70 L 433.60 482.80 L 431.90 483.10 L 431.00 483.60 L 430.50 484.30 L 430.30 485.70 L 430.80 487.80 L 431.50 489.20 L 432.50 490.00 L 433.50 490.20 L 434.80 494.50 L 435.80 496.00 L 437.30 497.50 L 439.10 498.70 L 441.90 499.80 L 445.70 499.90 L 448.00 499.20 L 450.70 497.20 L 452.10 495.40 L 453.60 490.80 L 454.80 490.60 L 456.10 489.20 L 456.70 485.60 L 456.10 484.00 L 455.10 483.60 L 455.90 478.60 L 456.00 472.70 L 455.10 470.10 L 453.00 467.30 L 451.30 466.20 L 448.40 465.30 L 443.30 465.10 L 439.00 465.80 L 436.20 467.40 L 435.20 468.60 L 433.50 472.70 Z" fill="#fdcaca" fill-rule="nonzero" group-id="3" node-id="394" stroke="none" target-height="34.799988" target-width="26.400024" target-x="430.3" target-y="465.1"></path><path d="M 439.20 496.10 L 438.70 501.20 L 438.10 503.30 L 437.30 505.30 L 436.10 507.10 L 434.50 508.40 L 442.00 521.00 L 452.30 507.10 L 449.90 506.60 L 448.60 505.90 L 447.30 504.40 L 446.50 499.80 L 446.20 496.00 L 439.20 496.00 Z" fill="#fdcaca" fill-rule="nonzero" group-id="3" node-id="396" stroke="none" target-height="25" target-width="17.799988" target-x="434.5" target-y="496"></path><path d="M 434.50 505.60 L 425.10 506.00 L 420.10 507.00 L 418.50 507.80 L 409.70 515.00 L 398.60 525.20 L 391.80 532.50 L 389.40 535.70 L 387.20 539.70 L 386.90 541.20 L 387.40 544.30 L 389.90 549.10 L 392.20 552.20 L 397.60 558.30 L 408.80 568.70 L 414.10 562.40 L 404.40 545.00 L 404.00 543.10 L 404.80 541.30 L 420.50 524.60 L 421.30 542.40 L 421.20 555.80 L 419.60 569.50 L 417.80 580.00 L 422.90 581.20 L 427.50 581.80 L 439.80 582.20 L 452.50 581.50 L 463.10 580.00 L 461.30 564.10 L 460.30 547.00 L 460.90 524.00 L 475.80 538.20 L 477.40 540.60 L 477.70 543.50 L 476.80 546.30 L 466.70 562.90 L 473.10 568.90 L 483.30 558.10 L 489.20 550.60 L 491.40 547.10 L 492.60 544.70 L 493.50 541.10 L 492.60 537.50 L 489.20 531.90 L 482.90 524.80 L 472.30 515.10 L 463.80 508.30 L 461.80 507.10 L 457.40 505.60 L 450.80 505.10 L 442.70 517.50 L 434.50 505.60 Z" fill="#dbeefe" fill-rule="nonzero" group-id="3" node-id="398" stroke="none" target-height="77.100006" target-width="106.600006" target-x="386.9" target-y="505.1"></path><path d="M 430.90 482.60 L 432.40 484.80 L 433.00 485.20 L 433.60 485.30 L 434.00 484.80 L 435.90 477.10 L 435.90 476.10 L 435.20 475.20 L 435.50 474.60 L 437.00 473.40 L 440.00 472.20 L 444.10 473.90 L 446.20 477.20 L 449.90 477.40 L 450.50 477.80 L 451.20 479.30 L 451.20 482.40 L 451.50 483.20 L 453.90 484.80 L 454.00 486.60 L 458.20 479.60 L 456.70 464.10 L 440.80 462.20 L 431.60 467.90 L 430.90 482.60 Z" fill="#63393f" fill-rule="nonzero" group-id="3" node-id="400" stroke="none" target-height="24.399994" target-width="27.300018" target-x="430.9" target-y="462.2"></path><path d="M 430.60 505.60 L 434.90 501.30 L 440.80 510.00 L 441.70 510.80 L 442.70 511.00 L 443.80 510.80 L 444.70 509.90 L 450.40 501.00 L 455.40 505.40 L 448.90 519.10 L 442.60 514.00 L 436.10 519.00 L 430.60 505.60 Z" fill="#b9d8ed" fill-rule="nonzero" group-id="3" node-id="402" stroke="none" target-height="18.099976" target-width="24.799988" target-x="430.6" target-y="501"></path><path d="M 442.60 511.40 L 441.50 512.90 L 440.60 515.30 L 440.50 516.90 L 440.80 518.60 L 441.80 520.60 L 438.90 555.50 L 442.60 562.30 L 446.00 555.40 L 443.30 520.60 L 444.30 517.50 L 444.40 516.00 L 443.70 512.90 L 442.60 511.40 Z" fill="#183f8c" fill-rule="nonzero" group-id="3" node-id="404" stroke="none" target-height="50.899994" target-width="7.100006" target-x="438.9" target-y="511.4"></path><path d="M 418.70 526.60 L 421.70 520.60 L 420.70 527.80 L 420.50 524.70 Z" fill="#b9d8ed" fill-rule="nonzero" group-id="3" node-id="406" stroke="none" target-height="7.200012" target-width="3" target-x="418.7" target-y="520.6"></path><path d="M 460.60 554.50 L 460.80 557.80 L 458.10 560.10 L 453.00 562.10 L 446.00 563.10 L 451.80 561.10 L 454.10 560.00 L 458.80 556.60 L 460.60 554.50 Z" fill="#b9d8ed" fill-rule="nonzero" group-id="3" node-id="408" stroke="none" target-height="8.599976" target-width="14.799988" target-x="446" target-y="554.5"></path><path d="M 405.10 541.00 L 400.00 541.50 L 396.90 541.00 L 395.70 540.30 L 397.60 542.30 L 399.30 543.30 L 401.30 544.00 L 404.00 544.20 L 404.10 542.40 L 405.10 541.00 Z" fill="#b9d8ed" fill-rule="nonzero" group-id="3" node-id="410" stroke="none" target-height="3.9000244" target-width="9.399994" target-x="395.7" target-y="540.3"></path><path d="M 477.10 540.10 L 478.30 540.10 L 479.10 539.40 L 481.00 535.90 L 479.70 540.80 L 477.70 543.90 L 477.70 541.60 L 477.10 540.10 Z" fill="#b9d8ed" fill-rule="nonzero" group-id="3" node-id="412" stroke="none" target-height="8" target-width="3.899994" target-x="477.1" target-y="535.9"></path><path d="M 413.20 563.50 L 415.20 564.80 L 418.00 564.60 L 421.40 563.60 L 425.30 563.40 L 429.10 564.10 L 431.70 565.10 L 432.10 565.40 L 432.20 566.50 L 431.40 567.20 L 424.90 566.20 L 429.10 570.20 L 430.10 571.70 L 430.10 572.30 L 429.30 572.80 L 427.20 571.40 L 428.40 573.70 L 427.60 574.20 L 424.90 572.40 L 426.30 574.60 L 425.60 575.20 L 423.90 574.60 L 418.40 570.20 L 417.00 570.10 L 414.40 571.10 L 413.30 570.80 L 412.10 570.10 L 410.00 567.80 L 413.20 563.50 Z" fill="#fdcaca" fill-rule="nonzero" group-id="3" node-id="414" stroke="none" target-height="11.799988" target-width="22.200012" target-x="410" target-y="563.4"></path><path d="M 467.70 564.00 L 467.20 564.60 L 464.90 564.70 L 460.40 563.50 L 456.50 563.30 L 452.70 564.00 L 450.10 565.00 L 449.70 565.30 L 449.60 566.40 L 450.40 567.10 L 456.90 566.10 L 452.70 570.10 L 451.70 571.60 L 451.70 572.20 L 452.10 572.70 L 453.00 572.50 L 454.60 571.30 L 453.40 573.60 L 454.20 574.10 L 456.90 572.30 L 455.50 574.50 L 456.20 575.10 L 457.90 574.50 L 463.40 570.10 L 464.80 570.00 L 467.40 571.00 L 468.50 570.70 L 469.70 570.00 L 471.70 568.10 L 467.70 564.00 Z" fill="#fdcaca" fill-rule="nonzero" group-id="3" node-id="416" stroke="none" target-height="11.799988" target-width="22.100006" target-x="449.6" target-y="563.3"></path></g></svg>