<?xml version="1.0" standalone="no"?><!DOCTYPE svg PUBLIC "-//W3C//DTD SVG 1.1//EN" "http://www.w3.org/Graphics/SVG/1.1/DTD/svg11.dtd"><svg height="1024" node-id="1" sillyvg="true" template-height="1024" template-width="1024" version="1.1" viewBox="0 0 1024 1024" width="1024" xmlns="http://www.w3.org/2000/svg" xmlns:xlink="http://www.w3.org/1999/xlink"><defs node-id="136"><linearGradient gradientUnits="objectBoundingBox" id="SVGID_1_" node-id="64" spreadMethod="pad" x1="503.5854" x2="511.9425" y1="621.252" y2="752.951"><stop offset="0" stop-color="#91b3ff"></stop><stop offset="0.4022" stop-color="#6791f2"></stop><stop offset="0.7939" stop-color="#3b6ce4"></stop></linearGradient><linearGradient gradientUnits="objectBoundingBox" id="SVGID_2_" node-id="69" spreadMethod="pad" x1="519.2904" x2="523.2734" y1="618.2672" y2="681.0345"><stop offset="0" stop-color="#91b3ff"></stop><stop offset="0.2484" stop-color="#6795ec"></stop><stop offset="0.7939" stop-color="#004cbf"></stop></linearGradient><linearGradient gradientUnits="objectBoundingBox" id="SVGID_3_" node-id="78" spreadMethod="pad" x1="743.7652" x2="706.8124" y1="649.0374" y2="598.7522"><stop offset="0" stop-color="#efbb81"></stop><stop offset="0.5011" stop-color="#f79e57"></stop><stop offset="1" stop-color="#ff7f2a"></stop></linearGradient><linearGradient gradientUnits="objectBoundingBox" id="SVGID_4_" node-id="87" spreadMethod="pad" x1="802.0955" x2="781.0126" y1="686.5665" y2="657.8769"><stop offset="0" stop-color="#efbb81"></stop><stop offset="0.5011" stop-color="#f79e57"></stop><stop offset="1" stop-color="#ff7f2a"></stop></linearGradient></defs><g node-id="429"><g node-id="438"><path d="M 162.80 716.10 L 162.80 510.30 L 245.30 510.30 L 245.30 362.10 L 385.90 362.10 L 385.90 716.10 Z" fill="#ccdafe" fill-rule="nonzero" group-id="1,10" node-id="177" stroke="none" target-height="353.99997" target-width="223.09999" target-x="162.8" target-y="362.1"></path><g node-id="442"><path d="M 259.20 386.60 L 288.00 386.60 L 288.00 409.60 L 259.20 409.60 Z" fill="#a8beef" fill-rule="nonzero" group-id="1,10,14" node-id="181" stroke="none" target-height="23" target-width="28.799988" target-x="259.2" target-y="386.6"></path><path d="M 302.40 386.60 L 331.20 386.60 L 331.20 409.60 L 302.40 409.60 Z" fill="#a8beef" fill-rule="nonzero" group-id="1,10,14" node-id="183" stroke="none" target-height="23" target-width="28.800018" target-x="302.4" target-y="386.6"></path><path d="M 345.60 386.60 L 374.40 386.60 L 374.40 409.60 L 345.60 409.60 Z" fill="#a8beef" fill-rule="nonzero" group-id="1,10,14" node-id="185" stroke="none" target-height="23" target-width="28.799988" target-x="345.6" target-y="386.6"></path><path d="M 259.20 422.60 L 288.00 422.60 L 288.00 445.60 L 259.20 445.60 Z" fill="#a8beef" fill-rule="nonzero" group-id="1,10,14" node-id="187" stroke="none" target-height="23" target-width="28.799988" target-x="259.2" target-y="422.6"></path><path d="M 302.40 422.60 L 331.20 422.60 L 331.20 445.60 L 302.40 445.60 Z" fill="#a8beef" fill-rule="nonzero" group-id="1,10,14" node-id="189" stroke="none" target-height="23" target-width="28.800018" target-x="302.4" target-y="422.6"></path><path d="M 345.60 422.60 L 374.40 422.60 L 374.40 445.60 L 345.60 445.60 Z" fill="#a8beef" fill-rule="nonzero" group-id="1,10,14" node-id="191" stroke="none" target-height="23" target-width="28.799988" target-x="345.6" target-y="422.6"></path><path d="M 259.20 458.50 L 288.00 458.50 L 288.00 481.50 L 259.20 481.50 Z" fill="#a8beef" fill-rule="nonzero" group-id="1,10,14" node-id="193" stroke="none" target-height="23" target-width="28.799988" target-x="259.2" target-y="458.5"></path><path d="M 302.40 458.50 L 331.20 458.50 L 331.20 481.50 L 302.40 481.50 Z" fill="#a8beef" fill-rule="nonzero" group-id="1,10,14" node-id="195" stroke="none" target-height="23" target-width="28.800018" target-x="302.4" target-y="458.5"></path><path d="M 345.60 458.50 L 374.40 458.50 L 374.40 481.50 L 345.60 481.50 Z" fill="#a8beef" fill-rule="nonzero" group-id="1,10,14" node-id="197" stroke="none" target-height="23" target-width="28.799988" target-x="345.6" target-y="458.5"></path><path d="M 259.20 494.50 L 288.00 494.50 L 288.00 517.50 L 259.20 517.50 Z" fill="#a8beef" fill-rule="nonzero" group-id="1,10,14" node-id="199" stroke="none" target-height="23" target-width="28.799988" target-x="259.2" target-y="494.5"></path><path d="M 302.40 494.50 L 331.20 494.50 L 331.20 517.50 L 302.40 517.50 Z" fill="#a8beef" fill-rule="nonzero" group-id="1,10,14" node-id="201" stroke="none" target-height="23" target-width="28.800018" target-x="302.4" target-y="494.5"></path><path d="M 345.60 494.50 L 374.40 494.50 L 374.40 517.50 L 345.60 517.50 Z" fill="#a8beef" fill-rule="nonzero" group-id="1,10,14" node-id="203" stroke="none" target-height="23" target-width="28.799988" target-x="345.6" target-y="494.5"></path><path d="M 259.20 530.50 L 288.00 530.50 L 288.00 553.50 L 259.20 553.50 Z" fill="#a8beef" fill-rule="nonzero" group-id="1,10,14" node-id="205" stroke="none" target-height="23" target-width="28.799988" target-x="259.2" target-y="530.5"></path><path d="M 216.10 530.50 L 244.90 530.50 L 244.90 553.50 L 216.10 553.50 Z" fill="#a8beef" fill-rule="nonzero" group-id="1,10,14" node-id="207" stroke="none" target-height="23" target-width="28.799988" target-x="216.1" target-y="530.5"></path><path d="M 172.90 530.50 L 201.70 530.50 L 201.70 553.50 L 172.90 553.50 Z" fill="#a8beef" fill-rule="nonzero" group-id="1,10,14" node-id="209" stroke="none" target-height="23" target-width="28.800003" target-x="172.9" target-y="530.5"></path><path d="M 302.40 530.50 L 331.20 530.50 L 331.20 553.50 L 302.40 553.50 Z" fill="#a8beef" fill-rule="nonzero" group-id="1,10,14" node-id="211" stroke="none" target-height="23" target-width="28.800018" target-x="302.4" target-y="530.5"></path><path d="M 345.60 530.50 L 374.40 530.50 L 374.40 553.50 L 345.60 553.50 Z" fill="#a8beef" fill-rule="nonzero" group-id="1,10,14" node-id="213" stroke="none" target-height="23" target-width="28.799988" target-x="345.6" target-y="530.5"></path><path d="M 259.20 566.50 L 288.00 566.50 L 288.00 589.50 L 259.20 589.50 Z" fill="#a8beef" fill-rule="nonzero" group-id="1,10,14" node-id="215" stroke="none" target-height="23" target-width="28.799988" target-x="259.2" target-y="566.5"></path><path d="M 216.10 566.50 L 244.90 566.50 L 244.90 589.50 L 216.10 589.50 Z" fill="#a8beef" fill-rule="nonzero" group-id="1,10,14" node-id="217" stroke="none" target-height="23" target-width="28.799988" target-x="216.1" target-y="566.5"></path><path d="M 172.90 566.50 L 201.70 566.50 L 201.70 589.50 L 172.90 589.50 Z" fill="#a8beef" fill-rule="nonzero" group-id="1,10,14" node-id="219" stroke="none" target-height="23" target-width="28.800003" target-x="172.9" target-y="566.5"></path><path d="M 302.40 566.50 L 331.20 566.50 L 331.20 589.50 L 302.40 589.50 Z" fill="#a8beef" fill-rule="nonzero" group-id="1,10,14" node-id="221" stroke="none" target-height="23" target-width="28.800018" target-x="302.4" target-y="566.5"></path><path d="M 345.60 566.50 L 374.40 566.50 L 374.40 589.50 L 345.60 589.50 Z" fill="#a8beef" fill-rule="nonzero" group-id="1,10,14" node-id="223" stroke="none" target-height="23" target-width="28.799988" target-x="345.6" target-y="566.5"></path><path d="M 259.20 602.40 L 288.00 602.40 L 288.00 625.40 L 259.20 625.40 Z" fill="#a8beef" fill-rule="nonzero" group-id="1,10,14" node-id="225" stroke="none" target-height="23" target-width="28.799988" target-x="259.2" target-y="602.4"></path><path d="M 216.10 602.40 L 244.90 602.40 L 244.90 625.40 L 216.10 625.40 Z" fill="#a8beef" fill-rule="nonzero" group-id="1,10,14" node-id="227" stroke="none" target-height="23" target-width="28.799988" target-x="216.1" target-y="602.4"></path><path d="M 172.90 602.40 L 201.70 602.40 L 201.70 625.40 L 172.90 625.40 Z" fill="#a8beef" fill-rule="nonzero" group-id="1,10,14" node-id="229" stroke="none" target-height="23" target-width="28.800003" target-x="172.9" target-y="602.4"></path><path d="M 302.40 602.40 L 331.20 602.40 L 331.20 625.40 L 302.40 625.40 Z" fill="#a8beef" fill-rule="nonzero" group-id="1,10,14" node-id="231" stroke="none" target-height="23" target-width="28.800018" target-x="302.4" target-y="602.4"></path><path d="M 345.60 602.40 L 374.40 602.40 L 374.40 625.40 L 345.60 625.40 Z" fill="#a8beef" fill-rule="nonzero" group-id="1,10,14" node-id="233" stroke="none" target-height="23" target-width="28.799988" target-x="345.6" target-y="602.4"></path><path d="M 259.20 638.40 L 288.00 638.40 L 288.00 661.40 L 259.20 661.40 Z" fill="#a8beef" fill-rule="nonzero" group-id="1,10,14" node-id="235" stroke="none" target-height="23" target-width="28.799988" target-x="259.2" target-y="638.4"></path><path d="M 216.10 638.40 L 244.90 638.40 L 244.90 661.40 L 216.10 661.40 Z" fill="#a8beef" fill-rule="nonzero" group-id="1,10,14" node-id="237" stroke="none" target-height="23" target-width="28.799988" target-x="216.1" target-y="638.4"></path><path d="M 172.90 638.40 L 201.70 638.40 L 201.70 661.40 L 172.90 661.40 Z" fill="#a8beef" fill-rule="nonzero" group-id="1,10,14" node-id="239" stroke="none" target-height="23" target-width="28.800003" target-x="172.9" target-y="638.4"></path><path d="M 302.40 638.40 L 331.20 638.40 L 331.20 661.40 L 302.40 661.40 Z" fill="#a8beef" fill-rule="nonzero" group-id="1,10,14" node-id="241" stroke="none" target-height="23" target-width="28.800018" target-x="302.4" target-y="638.4"></path><path d="M 345.60 638.40 L 374.40 638.40 L 374.40 661.40 L 345.60 661.40 Z" fill="#a8beef" fill-rule="nonzero" group-id="1,10,14" node-id="243" stroke="none" target-height="23" target-width="28.799988" target-x="345.6" target-y="638.4"></path></g></g><g node-id="439"><path d="M 634.80 713.30 L 634.80 583.70 L 698.20 583.70 L 698.20 434.10 L 794.60 434.10 L 794.60 504.60 L 850.70 504.60 L 850.70 713.30 Z" fill="#ccdafe" fill-rule="nonzero" group-id="1,11" node-id="249" stroke="none" target-height="279.19998" target-width="215.90002" target-x="634.8" target-y="434.1"></path><g node-id="443"><path d="M 712.60 452.80 L 741.40 452.80 L 741.40 475.80 L 712.60 475.80 Z" fill="#a8beef" fill-rule="nonzero" group-id="1,11,15" node-id="253" stroke="none" target-height="23" target-width="28.800049" target-x="712.6" target-y="452.8"></path><path d="M 752.80 452.80 L 781.60 452.80 L 781.60 475.80 L 752.80 475.80 Z" fill="#a8beef" fill-rule="nonzero" group-id="1,11,15" node-id="255" stroke="none" target-height="23" target-width="28.799988" target-x="752.8" target-y="452.8"></path><path d="M 712.60 596.70 L 741.40 596.70 L 741.40 619.70 L 712.60 619.70 Z" fill="#a8beef" fill-rule="nonzero" group-id="1,11,15" node-id="257" stroke="none" target-height="23" target-width="28.800049" target-x="712.6" target-y="596.7"></path><path d="M 672.30 596.70 L 701.10 596.70 L 701.10 619.70 L 672.30 619.70 Z" fill="#a8beef" fill-rule="nonzero" group-id="1,11,15" node-id="259" stroke="none" target-height="23" target-width="28.799988" target-x="672.3" target-y="596.7"></path><path d="M 672.30 632.70 L 701.10 632.70 L 701.10 655.70 L 672.30 655.70 Z" fill="#a8beef" fill-rule="nonzero" group-id="1,11,15" node-id="261" stroke="none" target-height="23" target-width="28.799988" target-x="672.3" target-y="632.7"></path><path d="M 752.80 596.70 L 781.60 596.70 L 781.60 619.70 L 752.80 619.70 Z" fill="#a8beef" fill-rule="nonzero" group-id="1,11,15" node-id="263" stroke="none" target-height="23" target-width="28.799988" target-x="752.8" target-y="596.7"></path><path d="M 712.60 488.80 L 741.40 488.80 L 741.40 511.80 L 712.60 511.80 Z" fill="#a8beef" fill-rule="nonzero" group-id="1,11,15" node-id="265" stroke="none" target-height="23" target-width="28.800049" target-x="712.6" target-y="488.8"></path><path d="M 752.80 488.80 L 781.60 488.80 L 781.60 511.80 L 752.80 511.80 Z" fill="#a8beef" fill-rule="nonzero" group-id="1,11,15" node-id="267" stroke="none" target-height="23" target-width="28.799988" target-x="752.8" target-y="488.8"></path><path d="M 712.60 524.70 L 741.40 524.70 L 741.40 547.70 L 712.60 547.70 Z" fill="#a8beef" fill-rule="nonzero" group-id="1,11,15" node-id="269" stroke="none" target-height="23" target-width="28.800049" target-x="712.6" target-y="524.7"></path><path d="M 752.80 524.70 L 781.60 524.70 L 781.60 547.70 L 752.80 547.70 Z" fill="#a8beef" fill-rule="nonzero" group-id="1,11,15" node-id="271" stroke="none" target-height="23" target-width="28.799988" target-x="752.8" target-y="524.7"></path><path d="M 793.10 524.70 L 821.90 524.70 L 821.90 547.70 L 793.10 547.70 Z" fill="#a8beef" fill-rule="nonzero" group-id="1,11,15" node-id="273" stroke="none" target-height="23" target-width="28.800049" target-x="793.1" target-y="524.7"></path><path d="M 793.10 560.70 L 821.90 560.70 L 821.90 583.70 L 793.10 583.70 Z" fill="#a8beef" fill-rule="nonzero" group-id="1,11,15" node-id="275" stroke="none" target-height="23" target-width="28.800049" target-x="793.1" target-y="560.7"></path><path d="M 793.10 596.70 L 821.90 596.70 L 821.90 619.70 L 793.10 619.70 Z" fill="#a8beef" fill-rule="nonzero" group-id="1,11,15" node-id="277" stroke="none" target-height="23" target-width="28.800049" target-x="793.1" target-y="596.7"></path><path d="M 793.10 632.70 L 821.90 632.70 L 821.90 655.70 L 793.10 655.70 Z" fill="#a8beef" fill-rule="nonzero" group-id="1,11,15" node-id="279" stroke="none" target-height="23" target-width="28.800049" target-x="793.1" target-y="632.7"></path><path d="M 712.60 560.70 L 741.40 560.70 L 741.40 583.70 L 712.60 583.70 Z" fill="#a8beef" fill-rule="nonzero" group-id="1,11,15" node-id="281" stroke="none" target-height="23" target-width="28.800049" target-x="712.6" target-y="560.7"></path><path d="M 752.80 560.70 L 781.60 560.70 L 781.60 583.70 L 752.80 583.70 Z" fill="#a8beef" fill-rule="nonzero" group-id="1,11,15" node-id="283" stroke="none" target-height="23" target-width="28.799988" target-x="752.8" target-y="560.7"></path><path d="M 712.60 632.70 L 741.40 632.70 L 741.40 655.70 L 712.60 655.70 Z" fill="#a8beef" fill-rule="nonzero" group-id="1,11,15" node-id="285" stroke="none" target-height="23" target-width="28.800049" target-x="712.6" target-y="632.7"></path><path d="M 752.80 632.70 L 781.60 632.70 L 781.60 655.70 L 752.80 655.70 Z" fill="#a8beef" fill-rule="nonzero" group-id="1,11,15" node-id="287" stroke="none" target-height="23" target-width="28.799988" target-x="752.8" target-y="632.7"></path></g></g><g node-id="440"><g node-id="444"><path d="M 92.30 750.70 L 104.90 741.40 L 128.00 726.40 L 155.30 710.30 L 182.50 696.10 L 197.00 689.00 L 213.00 681.80 L 230.40 674.30 L 248.00 667.30 L 266.90 660.50 L 287.20 653.70 L 318.30 644.50 L 334.80 640.30 L 352.10 636.20 L 369.30 632.70 L 387.10 629.50 L 405.50 626.60 L 424.60 624.20 L 443.50 622.30 L 463.10 620.90 L 483.20 620.00 L 503.90 619.70 L 521.40 620.00 L 538.70 620.70 L 555.70 621.80 L 572.50 623.40 L 605.80 627.70 L 637.90 633.30 L 659.00 637.80 L 679.30 642.70 L 699.00 648.00 L 718.60 653.80 L 737.20 659.70 L 772.70 672.30 L 805.00 685.20 L 827.80 695.20 L 848.00 704.60 L 867.00 714.00 L 883.00 722.40 L 909.20 737.10 L 931.30 750.70 L 914.40 745.60 L 888.50 739.50 L 858.90 734.10 L 842.50 731.70 L 823.50 729.40 L 801.50 727.20 L 779.50 725.60 L 754.70 724.30 L 726.90 723.40 L 714.20 723.40 L 702.00 723.90 L 690.20 724.70 L 672.50 726.60 L 655.20 729.10 L 602.70 738.20 L 571.70 743.00 L 544.90 746.00 L 531.20 747.00 L 516.60 747.70 L 501.00 747.90 L 479.30 747.70 L 439.00 745.90 L 419.70 744.60 L 342.90 737.80 L 302.10 734.60 L 257.80 732.10 L 243.30 731.70 L 229.20 731.80 L 215.50 732.20 L 188.80 734.10 L 158.40 737.60 L 127.80 742.70 L 116.00 745.10 L 92.30 750.70 Z" fill="url(#SVGID_1_)" fill-rule="nonzero" group-id="1,12,16" node-id="295" stroke="none" target-height="131" target-width="839" target-x="92.3" target-y="619.7"></path><path d="M 429.00 623.70 L 424.20 627.70 L 421.40 631.90 L 420.60 634.10 L 420.40 636.20 L 420.70 638.60 L 421.60 641.00 L 423.20 643.50 L 425.50 646.00 L 431.20 650.20 L 439.70 654.50 L 445.90 656.80 L 453.10 659.10 L 469.70 662.80 L 488.80 665.50 L 498.80 666.40 L 520.40 667.10 L 531.50 666.90 L 552.00 665.50 L 562.00 664.30 L 579.40 661.10 L 587.70 659.00 L 594.90 656.80 L 605.70 652.30 L 609.60 650.20 L 615.30 645.90 L 617.60 643.40 L 619.20 641.00 L 620.10 638.60 L 620.40 636.20 L 620.10 634.10 L 619.40 631.90 L 618.10 629.60 L 599.80 626.70 L 581.10 624.30 L 562.10 622.30 L 543.00 620.80 L 523.50 619.90 L 503.80 619.60 L 484.50 619.90 L 465.70 620.80 L 447.10 622.00 L 429.00 623.70 Z" fill="url(#SVGID_2_)" fill-rule="nonzero" group-id="1,12,16" node-id="297" stroke="none" target-height="47.5" target-width="200.00003" target-x="420.4" target-y="619.6"></path><g node-id="446"><path d="M 386.90 677.00 L 387.10 678.50 L 387.00 680.20 L 385.10 683.90 L 383.20 686.30 L 380.50 688.80 L 376.90 691.60 L 368.70 696.50 L 363.60 699.00 L 352.70 703.40 L 346.50 705.30 L 340.20 707.00 L 328.60 709.30 L 323.00 709.90 L 313.40 710.20 L 308.90 709.80 L 305.30 709.10 L 302.40 708.20 L 298.80 706.00 L 297.10 703.30 L 296.90 701.80 L 297.10 700.20 L 298.90 696.40 L 300.80 694.10 L 303.50 691.50 L 307.10 688.80 L 315.30 683.80 L 320.40 681.30 L 331.40 677.00 L 337.60 675.00 L 343.90 673.30 L 355.40 671.10 L 361.10 670.40 L 370.60 670.10 L 375.10 670.50 L 378.80 671.20 L 381.70 672.10 L 383.70 673.20 L 385.20 674.30 L 386.90 677.00 Z" fill="#3b6ce4" fill-rule="nonzero" group-id="1,12,16,18" node-id="301" stroke="none" target-height="40.100037" target-width="90.20001" target-x="296.9" target-y="670.1"></path></g><path d="M 562.10 699.40 L 567.80 701.40 L 572.90 703.70 L 577.70 706.40 L 581.50 709.10 L 585.50 713.10 L 587.40 716.70 L 587.70 718.40 L 587.40 719.90 L 586.80 721.30 L 585.60 722.60 L 583.90 723.70 L 579.50 725.20 L 576.50 725.60 L 571.70 725.70 L 566.30 725.30 L 560.80 724.30 L 555.00 722.80 L 549.40 720.80 L 544.20 718.50 L 539.50 715.90 L 535.60 713.10 L 531.70 709.20 L 529.70 705.50 L 529.50 703.80 L 529.70 702.30 L 530.40 700.90 L 531.50 699.60 L 533.30 698.50 L 537.60 697.00 L 540.70 696.60 L 545.40 696.50 L 550.80 697.00 L 556.30 697.90 L 562.10 699.40 Z" fill="#3b6ce4" fill-rule="nonzero" group-id="1,12,16,19" node-id="306" stroke="none" target-height="29.200012" target-width="58.200012" target-x="529.5" target-y="696.5"></path></g><g node-id="445"><g node-id="448"><path d="M 749.60 627.70 L 751.90 625.00 L 753.70 622.10 L 755.00 619.00 L 755.90 615.80 L 756.20 612.50 L 756.00 609.10 L 755.30 606.10 L 754.20 603.30 L 752.80 600.70 L 751.00 598.30 L 746.50 594.30 L 740.80 591.30 L 740.90 588.60 L 740.60 585.70 L 739.70 582.70 L 738.40 580.10 L 736.60 577.80 L 734.50 575.90 L 732.10 574.30 L 729.50 573.10 L 726.70 572.40 L 723.80 572.30 L 720.80 572.60 L 717.90 573.50 L 715.30 574.80 L 713.00 576.60 L 711.10 578.70 L 709.50 581.10 L 708.40 583.70 L 707.70 586.50 L 707.60 589.40 L 707.90 592.50 L 709.00 595.80 L 706.50 598.00 L 702.60 602.90 L 700.00 608.40 L 699.30 611.30 L 699.10 614.30 L 699.30 617.40 L 699.90 620.20 L 702.20 625.20 L 703.80 627.50 L 701.30 629.40 L 697.60 633.40 L 696.40 635.70 L 695.70 638.00 L 695.40 640.50 L 695.70 643.10 L 696.50 645.50 L 697.90 647.90 L 699.60 650.00 L 701.80 652.00 L 704.60 653.90 L 710.80 656.90 L 718.30 658.80 L 722.30 659.30 L 726.60 659.50 L 734.90 658.80 L 738.70 658.00 L 745.70 655.50 L 751.40 652.00 L 753.60 650.00 L 755.30 647.90 L 756.70 645.50 L 757.50 643.10 L 757.80 640.50 L 757.50 638.10 L 756.80 635.80 L 755.50 633.50 L 754.00 631.50 L 749.60 627.70 Z" fill="url(#SVGID_3_)" fill-rule="nonzero" group-id="1,12,17,20" node-id="314" stroke="none" target-height="87.20001" target-width="62.399963" target-x="695.4" target-y="572.3"></path><g node-id="450"><g node-id="452"><path d="M 725.90 686.00 L 724.90 684.30 L 724.60 683.10 L 726.70 659.80 L 726.90 651.40 L 726.80 639.50 L 726.20 631.30 L 724.30 619.20 L 724.40 618.00 L 725.10 616.00 L 725.90 615.40 L 726.60 615.40 L 727.20 616.00 L 727.70 617.40 L 729.60 629.80 L 730.40 642.70 L 730.50 651.60 L 729.40 671.10 L 728.10 683.50 L 727.20 685.70 L 726.60 686.10 L 725.90 686.00 Z" fill="#ff7f2a" fill-rule="nonzero" group-id="1,12,17,20,22,24" node-id="320" stroke="none" target-height="70.69995" target-width="6.200012" target-x="724.3" target-y="615.4"></path></g></g></g><g node-id="449"><path d="M 805.40 674.40 L 807.20 672.10 L 808.50 669.50 L 809.00 667.60 L 809.10 663.80 L 808.50 661.50 L 807.60 659.50 L 804.60 656.10 L 800.40 653.60 L 800.30 650.40 L 799.80 648.70 L 798.00 645.90 L 796.10 644.30 L 794.00 643.20 L 790.70 642.70 L 789.00 642.90 L 785.80 644.20 L 784.60 645.20 L 783.00 647.10 L 781.90 649.30 L 781.50 652.50 L 782.30 656.20 L 778.90 659.70 L 777.80 661.80 L 777.00 663.90 L 776.70 666.20 L 776.80 668.50 L 777.30 670.60 L 779.40 674.30 L 777.30 675.90 L 775.90 677.60 L 774.90 679.60 L 774.60 681.70 L 774.90 683.60 L 775.70 685.40 L 777.00 687.20 L 778.70 688.60 L 780.80 689.90 L 786.10 691.80 L 792.40 692.50 L 798.70 691.80 L 804.00 689.90 L 807.80 687.10 L 809.10 685.40 L 809.90 683.60 L 810.20 681.70 L 809.80 679.70 L 808.80 677.70 L 807.40 676.00 L 805.40 674.40 Z" fill="url(#SVGID_4_)" fill-rule="nonzero" group-id="1,12,17,21" node-id="327" stroke="none" target-height="49.799988" target-width="35.600037" target-x="774.6" target-y="642.7"></path><g node-id="451"><g node-id="453"><path d="M 791.90 707.70 L 791.30 706.80 L 791.20 705.20 L 792.20 695.40 L 792.40 681.20 L 792.10 676.50 L 791.00 668.80 L 791.40 667.70 L 792.20 667.40 L 792.90 668.50 L 794.00 675.60 L 794.50 688.00 L 794.10 696.00 L 793.10 706.20 L 792.70 707.50 L 791.90 707.70 Z" fill="#ff7f2a" fill-rule="nonzero" group-id="1,12,17,21,23,25" node-id="333" stroke="none" target-height="40.299988" target-width="3.5" target-x="791" target-y="667.4"></path></g></g></g></g></g></g><g node-id="430"><path d="M 636.80 405.90 L 535.20 405.90 L 534.20 402.10 L 532.80 398.60 L 531.10 395.30 L 528.90 392.20 L 526.50 389.40 L 523.70 386.90 L 520.70 384.70 L 517.40 382.80 L 514.00 381.30 L 510.40 380.20 L 506.50 379.60 L 502.50 379.30 L 400.20 379.30 L 395.60 379.60 L 391.30 380.50 L 387.20 381.90 L 383.30 383.90 L 379.80 386.20 L 376.60 389.10 L 373.80 392.30 L 371.40 395.80 L 369.40 399.70 L 368.00 403.80 L 367.10 408.10 L 366.80 412.70 L 366.80 537.00 L 367.10 540.60 L 368.10 544.00 L 369.50 547.10 L 371.50 549.90 L 373.90 552.30 L 376.70 554.30 L 379.80 555.70 L 383.20 556.70 L 386.80 557.00 L 636.80 557.00 L 640.40 556.70 L 643.80 555.70 L 646.90 554.30 L 649.70 552.30 L 652.10 549.90 L 654.10 547.10 L 655.50 544.00 L 656.50 540.60 L 656.80 537.00 L 656.80 425.90 L 656.50 422.20 L 655.50 418.90 L 654.10 415.80 L 652.10 413.00 L 649.70 410.60 L 646.90 408.60 L 643.80 407.10 L 640.40 406.20 L 636.80 405.90 Z" fill="#3b6ce4" fill-rule="nonzero" group-id="2" node-id="343" stroke="none" target-height="177.70001" target-width="290" target-x="366.8" target-y="379.3"></path><path d="M 620.80 598.60 L 402.80 598.60 L 401.00 598.40 L 397.80 597.20 L 395.20 595.00 L 394.20 593.60 L 393.00 590.40 L 392.80 588.60 L 392.80 283.80 L 393.40 280.30 L 394.20 278.80 L 396.40 276.20 L 399.30 274.40 L 402.80 273.80 L 620.80 273.80 L 622.60 274.00 L 625.80 275.20 L 628.40 277.40 L 629.40 278.80 L 630.60 282.00 L 630.80 283.80 L 630.80 588.60 L 630.20 592.10 L 629.40 593.60 L 627.20 596.20 L 624.30 598.00 L 620.80 598.60 Z" fill="#c5d4ef" fill-rule="nonzero" group-id="2" node-id="345" stroke="none" target-height="324.8" target-width="238" target-x="392.8" target-y="273.8"></path><path d="M 384.50 424.10 L 639.00 424.10 L 639.00 607.10 L 384.50 607.10 Z" fill="#dfe7f7" fill-rule="nonzero" group-id="2" node-id="347" stroke="none" target-height="182.99997" target-width="254.5" target-x="384.5" target-y="424.1"></path><path d="M 376.50 437.30 L 647.20 437.30 L 647.20 601.90 L 376.50 601.90 Z" fill="#f8faff" fill-rule="nonzero" group-id="2" node-id="349" stroke="none" target-height="164.60004" target-width="270.7" target-x="376.5" target-y="437.3"></path><path d="M 623.40 455.10 L 521.10 455.10 L 517.10 455.40 L 513.20 456.00 L 509.60 457.10 L 506.20 458.60 L 502.90 460.50 L 499.90 462.70 L 497.10 465.20 L 494.70 468.00 L 492.50 471.10 L 490.80 474.40 L 489.40 477.90 L 488.40 481.70 L 386.80 481.70 L 383.20 482.00 L 379.80 483.00 L 376.70 484.40 L 373.90 486.40 L 371.50 488.80 L 369.50 491.60 L 368.10 494.70 L 367.10 498.10 L 366.80 501.70 L 366.80 612.80 L 367.10 616.40 L 368.10 619.80 L 369.50 622.90 L 371.50 625.70 L 373.90 628.10 L 376.70 630.10 L 379.80 631.50 L 383.20 632.50 L 386.80 632.80 L 636.80 632.80 L 640.40 632.50 L 643.80 631.50 L 646.90 630.10 L 649.70 628.10 L 652.10 625.70 L 654.10 622.90 L 655.50 619.80 L 656.50 616.40 L 656.80 612.80 L 656.80 488.40 L 656.50 483.80 L 655.60 479.50 L 654.20 475.40 L 652.20 471.60 L 649.80 468.10 L 647.00 464.90 L 643.80 462.00 L 640.30 459.70 L 636.40 457.70 L 632.30 456.30 L 628.00 455.40 L 623.40 455.10 Z" fill="#5d94fa" fill-rule="nonzero" group-id="2" node-id="351" stroke="none" target-height="177.69998" target-width="290" target-x="366.8" target-y="455.1"></path></g><g node-id="431"><path d="M 432.80 329.60 L 418.10 329.60 L 417.00 329.40 L 416.20 328.80 L 415.60 328.00 L 415.40 326.90 L 415.40 312.20 L 415.60 311.10 L 416.20 310.30 L 417.00 309.70 L 418.10 309.50 L 432.80 309.50 L 433.90 309.70 L 434.70 310.30 L 435.30 311.10 L 435.50 312.20 L 435.50 327.00 L 434.70 328.80 L 433.90 329.40 L 432.80 329.60 Z" fill="#9bb2d3" fill-rule="nonzero" group-id="3" node-id="356" stroke="none" target-height="20.100006" target-width="20.100006" target-x="415.4" target-y="309.5"></path><path d="M 604.10 329.60 L 454.80 329.60 L 453.20 329.30 L 452.00 328.40 L 451.10 327.20 L 450.80 325.60 L 450.80 313.60 L 451.10 312.00 L 452.00 310.80 L 453.20 309.90 L 454.80 309.60 L 604.10 309.60 L 605.70 309.90 L 606.90 310.80 L 607.80 312.00 L 608.10 313.60 L 608.10 325.60 L 607.80 327.20 L 606.90 328.40 L 605.70 329.30 L 604.10 329.60 Z" fill="#9bb2d3" fill-rule="nonzero" group-id="3" node-id="358" stroke="none" target-height="20" target-width="157.29999" target-x="450.8" target-y="309.6"></path></g><g node-id="432"><path d="M 432.80 367.00 L 418.10 367.00 L 417.00 366.80 L 416.20 366.20 L 415.60 365.40 L 415.40 364.30 L 415.40 349.60 L 415.60 348.50 L 416.20 347.70 L 417.00 347.10 L 418.10 346.90 L 432.80 346.90 L 433.90 347.10 L 434.70 347.70 L 435.30 348.50 L 435.50 349.60 L 435.50 364.30 L 435.30 365.40 L 434.70 366.20 L 433.90 366.80 L 432.80 367.00 Z" fill="#9bb2d3" fill-rule="nonzero" group-id="4" node-id="363" stroke="none" target-height="20.100006" target-width="20.100006" target-x="415.4" target-y="346.9"></path><path d="M 604.10 367.00 L 454.80 367.00 L 453.20 366.70 L 452.00 365.80 L 451.10 364.60 L 450.80 363.00 L 450.80 351.00 L 451.10 349.40 L 452.00 348.20 L 453.20 347.30 L 454.80 347.00 L 604.10 347.00 L 605.70 347.30 L 606.90 348.20 L 607.80 349.40 L 608.10 351.00 L 608.10 363.00 L 607.80 364.60 L 606.90 365.80 L 605.70 366.70 L 604.10 367.00 Z" fill="#9bb2d3" fill-rule="nonzero" group-id="4" node-id="365" stroke="none" target-height="20" target-width="157.29999" target-x="450.8" target-y="347"></path></g><g node-id="433"><path d="M 432.80 404.50 L 418.10 404.50 L 417.00 404.30 L 416.20 403.70 L 415.60 402.90 L 415.40 401.80 L 415.40 387.10 L 415.60 386.00 L 416.20 385.20 L 417.00 384.60 L 418.10 384.40 L 432.80 384.40 L 433.90 384.60 L 434.70 385.20 L 435.30 386.00 L 435.50 387.10 L 435.50 401.80 L 435.30 402.90 L 434.70 403.70 L 433.90 404.30 L 432.80 404.50 Z" fill="#9bb2d3" fill-rule="nonzero" group-id="5" node-id="370" stroke="none" target-height="20.100006" target-width="20.100006" target-x="415.4" target-y="384.4"></path><path d="M 604.10 404.50 L 454.80 404.50 L 453.20 404.20 L 452.00 403.30 L 451.10 402.10 L 450.80 400.50 L 450.80 388.50 L 451.10 386.90 L 452.00 385.70 L 453.20 384.80 L 454.80 384.50 L 604.10 384.50 L 605.70 384.80 L 606.90 385.70 L 607.80 386.90 L 608.10 388.50 L 608.10 400.50 L 607.80 402.10 L 606.90 403.30 L 605.70 404.20 L 604.10 404.50 Z" fill="#9bb2d3" fill-rule="nonzero" group-id="5" node-id="372" stroke="none" target-height="20" target-width="157.29999" target-x="450.8" target-y="384.5"></path></g><g node-id="434"><path d="M 432.80 324.60 L 418.10 324.60 L 417.00 324.40 L 416.20 323.80 L 415.60 323.00 L 415.40 321.90 L 415.40 307.20 L 415.60 306.10 L 416.20 305.30 L 417.00 304.70 L 418.10 304.50 L 432.80 304.50 L 433.90 304.70 L 434.70 305.30 L 435.30 306.10 L 435.50 307.20 L 435.50 322.00 L 434.70 323.80 L 433.90 324.40 L 432.80 324.60 Z" fill="#ffffff" fill-rule="nonzero" group-id="6" node-id="377" stroke="none" target-height="20.100006" target-width="20.100006" target-x="415.4" target-y="304.5"></path><path d="M 604.10 324.60 L 454.80 324.60 L 453.20 324.30 L 452.00 323.40 L 451.10 322.20 L 450.80 320.60 L 450.80 308.60 L 451.10 307.00 L 452.00 305.80 L 453.20 304.90 L 454.80 304.60 L 604.10 304.60 L 605.70 304.90 L 606.90 305.80 L 607.80 307.00 L 608.10 308.60 L 608.10 320.60 L 607.80 322.20 L 606.90 323.40 L 605.70 324.30 L 604.10 324.60 Z" fill="#ffffff" fill-rule="nonzero" group-id="6" node-id="379" stroke="none" target-height="20" target-width="157.29999" target-x="450.8" target-y="304.6"></path></g><g node-id="435"><path d="M 432.80 362.00 L 418.10 362.00 L 417.00 361.80 L 416.20 361.20 L 415.60 360.40 L 415.40 359.30 L 415.40 344.60 L 415.60 343.50 L 416.20 342.70 L 417.00 342.10 L 418.10 341.90 L 432.80 341.90 L 433.90 342.10 L 434.70 342.70 L 435.30 343.50 L 435.50 344.60 L 435.50 359.30 L 435.30 360.40 L 434.70 361.20 L 433.90 361.80 L 432.80 362.00 Z" fill="#ffffff" fill-rule="nonzero" group-id="7" node-id="384" stroke="none" target-height="20.100006" target-width="20.100006" target-x="415.4" target-y="341.9"></path><path d="M 604.10 362.00 L 454.80 362.00 L 453.20 361.70 L 452.00 360.80 L 451.10 359.60 L 450.80 358.00 L 450.80 346.00 L 451.10 344.40 L 452.00 343.20 L 453.20 342.30 L 454.80 342.00 L 604.10 342.00 L 605.70 342.30 L 606.90 343.20 L 607.80 344.40 L 608.10 346.00 L 608.10 358.00 L 607.80 359.60 L 606.90 360.80 L 605.70 361.70 L 604.10 362.00 Z" fill="#ffffff" fill-rule="nonzero" group-id="7" node-id="386" stroke="none" target-height="20" target-width="157.29999" target-x="450.8" target-y="342"></path></g><g node-id="436"><path d="M 432.80 399.50 L 418.10 399.50 L 417.00 399.30 L 416.20 398.70 L 415.60 397.90 L 415.40 396.80 L 415.40 382.10 L 415.60 381.00 L 416.20 380.20 L 417.00 379.60 L 418.10 379.40 L 432.80 379.40 L 433.90 379.60 L 434.70 380.20 L 435.30 381.00 L 435.50 382.10 L 435.50 396.80 L 435.30 397.90 L 434.70 398.70 L 433.90 399.30 L 432.80 399.50 Z" fill="#ffffff" fill-rule="nonzero" group-id="8" node-id="391" stroke="none" target-height="20.100006" target-width="20.100006" target-x="415.4" target-y="379.4"></path><path d="M 604.10 399.50 L 454.80 399.50 L 453.20 399.20 L 452.00 398.30 L 451.10 397.10 L 450.80 395.50 L 450.80 383.50 L 451.10 381.90 L 452.00 380.70 L 453.20 379.80 L 454.80 379.50 L 604.10 379.50 L 605.70 379.80 L 606.90 380.70 L 607.80 381.90 L 608.10 383.50 L 608.10 395.50 L 607.80 397.10 L 606.90 398.30 L 605.70 399.20 L 604.10 399.50 Z" fill="#ffffff" fill-rule="nonzero" group-id="8" node-id="393" stroke="none" target-height="20" target-width="157.29999" target-x="450.8" target-y="379.5"></path></g><g node-id="437"><path d="M 382.90 502.20 L 384.10 505.30 L 384.80 508.40 L 385.00 511.30 L 384.70 514.30 L 384.10 517.00 L 383.00 519.40 L 381.60 521.60 L 379.70 523.30 L 377.50 524.70 L 375.10 525.50 L 372.70 525.60 L 370.40 525.20 L 365.80 523.00 L 363.50 521.20 L 360.20 518.00 L 356.90 514.10 L 355.50 512.00 L 354.60 509.90 L 354.10 507.70 L 353.90 505.50 L 354.60 501.10 L 355.80 498.10 L 357.50 495.40 L 359.00 493.80 L 362.30 491.60 L 364.80 490.80 L 367.30 490.60 L 369.90 490.90 L 372.40 491.70 L 374.90 492.90 L 377.30 494.70 L 379.40 496.80 L 381.30 499.30 L 382.90 502.20 Z" fill="#fdcaca" fill-rule="nonzero" group-id="9" node-id="398" stroke="none" target-height="34.99997" target-width="31.100006" target-x="353.9" target-y="490.6"></path><path d="M 353.30 500.60 L 350.30 499.60 L 347.10 499.50 L 344.70 500.50 L 343.70 501.50 L 342.90 502.90 L 342.20 505.10 L 342.00 507.20 L 342.40 510.00 L 343.20 511.70 L 344.40 512.80 L 345.80 513.50 L 348.80 514.10 L 351.10 513.90 L 354.00 512.40 L 355.20 515.70 L 358.00 519.80 L 360.20 521.60 L 361.80 522.40 L 363.80 523.00 L 366.10 523.20 L 365.80 516.80 L 365.60 516.30 L 364.20 515.60 L 363.20 514.70 L 362.60 513.30 L 362.20 510.20 L 362.60 509.10 L 363.10 508.70 L 363.90 508.60 L 366.60 509.50 L 368.30 509.60 L 370.20 509.20 L 373.80 507.50 L 377.10 504.50 L 378.40 502.70 L 379.30 500.50 L 379.70 498.30 L 379.70 496.40 L 379.10 494.90 L 377.00 492.30 L 372.90 490.20 L 370.10 489.50 L 367.50 489.30 L 364.80 489.50 L 362.10 490.20 L 359.50 491.40 L 357.20 493.00 L 355.30 495.10 L 354.30 496.70 L 353.30 500.60 Z" fill="#7d1c1c" fill-rule="nonzero" group-id="9" node-id="400" stroke="none" target-height="33.900024" target-width="37.700012" target-x="342" target-y="489.3"></path><path d="M 376.80 633.70 L 376.10 648.00 L 374.50 656.70 L 374.30 660.10 L 375.10 671.00 L 375.90 707.40 L 383.30 714.80 L 386.40 714.90 L 387.30 714.70 L 387.70 714.30 L 387.70 713.60 L 386.60 712.30 L 382.20 708.60 L 381.40 707.30 L 381.00 705.80 L 380.80 703.20 L 382.30 688.20 L 386.30 659.50 L 387.50 633.70 L 376.80 633.70 Z" fill="#fdcaca" fill-rule="nonzero" group-id="9" node-id="402" stroke="none" target-height="81.20001" target-width="13.400024" target-x="374.3" target-y="633.7"></path><path d="M 375.80 706.20 L 375.20 711.40 L 375.60 715.40 L 376.70 715.20 L 376.80 711.90 L 377.10 711.40 L 380.30 715.20 L 389.70 715.40 L 390.20 715.10 L 390.30 714.50 L 390.00 714.10 L 385.00 710.80 L 383.80 712.20 L 382.50 711.80 L 378.50 707.70 L 376.00 705.90 L 375.80 706.20 Z" fill="#353535" fill-rule="nonzero" group-id="9" node-id="404" stroke="none" target-height="9.5" target-width="15.099976" target-x="375.2" target-y="705.9"></path><path d="M 359.20 633.90 L 358.50 648.20 L 356.90 656.90 L 356.70 660.30 L 357.50 671.20 L 358.30 707.60 L 365.70 715.00 L 368.80 715.10 L 369.70 714.90 L 370.10 714.50 L 370.10 713.80 L 369.00 712.50 L 364.60 708.80 L 363.80 707.50 L 363.40 706.00 L 363.20 703.40 L 364.70 688.40 L 368.70 659.70 L 369.90 633.90 L 359.20 633.90 Z" fill="#fdcaca" fill-rule="nonzero" group-id="9" node-id="406" stroke="none" target-height="81.19995" target-width="13.399994" target-x="356.7" target-y="633.9"></path><path d="M 368.50 522.50 L 377.50 521.40 L 377.50 534.20 L 369.70 534.20 Z" fill="#fdcaca" fill-rule="nonzero" group-id="9" node-id="408" stroke="none" target-height="12.799988" target-width="9" target-x="368.5" target-y="521.4"></path><path d="M 359.30 589.50 L 388.70 589.50 L 390.90 601.30 L 391.50 606.80 L 392.10 620.10 L 391.30 631.90 L 389.20 641.00 L 355.20 641.00 L 356.40 625.90 L 356.30 623.10 L 353.50 609.70 L 353.20 605.00 L 355.10 597.40 L 357.70 591.80 L 359.30 589.50 Z" fill="#274da0" fill-rule="nonzero" group-id="9" node-id="410" stroke="none" target-height="51.5" target-width="38.899994" target-x="353.2" target-y="589.5"></path><path d="M 358.30 706.40 L 357.70 711.60 L 358.10 715.60 L 359.20 715.40 L 359.30 712.10 L 359.60 711.60 L 362.80 715.40 L 372.20 715.60 L 372.70 715.30 L 372.80 714.70 L 372.50 714.30 L 367.50 711.00 L 366.30 712.40 L 365.00 712.00 L 361.00 707.90 L 358.50 706.10 L 358.30 706.40 Z" fill="#353535" fill-rule="nonzero" group-id="9" node-id="412" stroke="none" target-height="9.5" target-width="15.099976" target-x="357.7" target-y="706.1"></path><g node-id="441"><path d="M 365.20 531.10 L 361.50 531.70 L 356.80 533.20 L 353.50 535.50 L 352.20 538.10 L 351.40 545.20 L 351.30 553.50 L 351.60 561.60 L 352.30 568.30 L 353.30 572.20 L 354.40 573.70 L 357.10 575.50 L 359.30 576.10 L 355.40 592.90 L 392.40 593.60 L 390.40 574.90 L 390.80 566.10 L 392.90 552.50 L 401.00 557.80 L 403.90 558.80 L 404.90 558.50 L 406.50 557.20 L 410.30 553.40 L 418.40 543.60 L 414.50 540.40 L 406.10 548.00 L 403.60 550.00 L 402.90 549.90 L 400.40 547.40 L 393.00 536.20 L 391.20 533.70 L 390.30 533.10 L 385.00 531.70 L 380.30 531.20 L 365.20 531.20 Z" fill="#dbeefe" fill-rule="nonzero" group-id="9,13" node-id="416" stroke="none" target-height="62.5" target-width="67.100006" target-x="351.3" target-y="531.1"></path><path d="M 359.80 549.10 L 360.00 555.90 L 360.40 558.60 L 361.10 561.10 L 362.70 563.80 L 363.70 564.70 L 367.60 566.00 L 381.00 568.20 L 380.70 569.10 L 365.80 566.70 L 364.10 566.20 L 362.60 565.30 L 361.40 564.00 L 360.50 562.50 L 359.30 558.60 L 359.20 554.00 L 359.80 549.10 Z" fill="#b9d8ed" fill-rule="nonzero" group-id="9,13" node-id="418" stroke="none" target-height="20" target-width="21.799988" target-x="359.2" target-y="549.1"></path><path d="M 413.80 542.20 L 415.70 539.70 L 416.70 536.80 L 418.50 534.50 L 420.30 533.10 L 421.50 532.70 L 424.00 530.30 L 425.40 528.40 L 425.90 528.60 L 426.10 529.30 L 428.20 526.20 L 429.30 525.90 L 429.60 526.70 L 425.10 535.10 L 421.70 537.70 L 420.30 539.10 L 417.20 543.50 L 413.80 542.20 Z" fill="#fdcaca" fill-rule="nonzero" group-id="9,13" node-id="420" stroke="none" target-height="17.599976" target-width="15.800018" target-x="413.8" target-y="525.9"></path><path d="M 380.70 569.10 L 379.30 573.00 L 383.10 573.50 L 389.60 576.00 L 395.50 576.00 L 398.00 575.50 L 399.00 574.70 L 396.70 574.00 L 394.90 574.00 L 395.00 572.90 L 392.20 572.50 L 386.70 569.90 L 380.70 569.10 Z" fill="#fdcaca" fill-rule="nonzero" group-id="9,13" node-id="422" stroke="none" target-height="6.9000244" target-width="19.700012" target-x="379.3" target-y="569.1"></path></g><path d="M 359.30 576.00 L 378.90 574.10 L 378.50 575.50 Z" fill="#b9d8ed" fill-rule="nonzero" group-id="9" node-id="425" stroke="none" target-height="1.9000244" target-width="19.600006" target-x="359.3" target-y="574.1"></path><path d="M 392.70 554.00 L 390.60 546.50 L 394.50 553.40 L 393.00 552.30 Z" fill="#b9d8ed" fill-rule="nonzero" group-id="9" node-id="427" stroke="none" target-height="7.5" target-width="3.899994" target-x="390.6" target-y="546.5"></path></g></svg>